<?xml version="1.0" encoding="UTF-8"?>
<svg width="148px" height="26px" viewBox="0 0 148 26" version="1.1" xmlns="http://www.w3.org/2000/svg" xmlns:xlink="http://www.w3.org/1999/xlink">
    <title>Full Logo- Dark/W Logo</title>
    <g id="Full-Logo--Dark/W-Logo" stroke="none" stroke-width="1" fill="none" fill-rule="evenodd">
        <g id="Group-2" fill="#FFFFFF">
            <g id="Logo">
                <g fill-rule="nonzero">
                    <path d="M39.8158775,12.9909755 L34.6975003,7.86188232 L37.2553552,2.73457106 L45.5717179,11.0683452 C46.6313388,12.1301846 46.6313388,13.8517664 45.5717179,14.9136059 L35.3358527,25.1709013 C34.2762317,26.2327407 32.5582467,26.2327407 31.4986258,25.1709013 C30.4390048,24.1090619 30.4390048,22.38748 31.4986258,21.3256406 L39.8158775,12.9909755 Z" id="Combined-Shape" opacity="0.56"></path>
                    <path d="M31.500533,0.800996807 C32.560154,-0.260842615 34.2785836,-0.260397129 35.3382045,0.801442293 L37.2572625,2.72451813 L14.8678078,25.1608484 C13.8081869,26.2226878 12.0897573,26.2222423 11.0301363,25.1604029 L9.11107833,23.237327 L31.500533,0.800996807 Z M21.9047984,7.85272036 L18.0666824,11.698872 L12.9483052,6.56977883 L6.55055609,12.9809226 L11.6689332,18.1100158 L9.11107833,23.237327 L0.794715716,14.9035529 C-0.264905239,13.8417135 -0.264905239,12.1201317 0.794715716,11.0582922 L11.0301363,0.801442293 C12.0897573,-0.260397129 13.8081869,-0.260842615 14.8678078,0.800996807 L21.9047984,7.85272036 Z" id="Main"></path>
                </g>
                <path d="M57.7610236,8.80870679 L57.7610236,17.5206146 L62.5463869,17.5206146 L63.5606527,20.4245837 L57.7610236,20.4245837 C56.1626689,20.4245837 54.8669464,19.1244324 54.8669464,17.5206145 L54.8669464,8.80870679 C54.8669464,7.20488885 56.1626689,5.90473752 57.7610236,5.90473752 L62.5463869,5.90473752 L62.5463869,8.80870679 L63.5606527,8.80870679 L63.5606527,3.00076825 C63.5606527,2.19885927 64.2093702,1.54878361 65.0096037,1.54878361 L66.4585548,1.54878361 L66.4585548,18.9725991 C66.4585548,19.7745081 65.8098373,20.4245837 65.0096037,20.4245837 L63.5606527,20.4245837 L63.5606527,8.80870679 L57.7610236,8.80870679 Z M72.2505478,20.4246099 C70.652194,20.4246099 69.3564569,19.1244506 69.3564569,17.5206336 L69.3564569,14.6166453 C69.3564569,13.0128274 70.6521794,11.7126761 72.250534,11.7126761 L77.0358974,11.7126761 L77.0358974,14.6166453 L78.0501632,14.6166453 L78.0501632,8.80870679 L70.0799762,8.80870679 L70.0799783,7.35672215 C70.0799783,6.55481403 70.7278383,5.90473752 71.5270148,5.90473752 L78.0501632,5.90473752 C79.6506303,5.90473752 80.9480783,7.20488885 80.9480783,8.80870679 L80.9480783,18.9726253 C80.9480783,19.7745343 80.2993608,20.4246099 79.4991272,20.4246099 L78.0501632,20.4246099 L78.0501632,14.6166453 L72.250534,14.6166453 L72.250534,17.5206146 L77.0358974,17.5206146 L78.0501632,20.4246099 C74.4776385,20.4246099 72.5444334,20.4246099 72.2505478,20.4246099 Z M83.8459674,20.4245839 L83.8459674,7.35672215 C83.8459674,6.55481318 84.4938286,5.90473752 85.293006,5.90473752 L86.7400445,5.90473752 L86.7400445,18.9725992 C86.7400445,19.7745082 86.0921833,20.4245839 85.293006,20.4245839 L83.8459674,20.4245839 Z M86.7400445,3.01025834 C86.7400445,3.41517112 86.601332,3.75681114 86.3239027,4.03518867 C86.0464735,4.3135662 85.7059972,4.45275288 85.3024637,4.45275288 C84.8989302,4.45275288 84.5553014,4.3135662 84.271567,4.03518867 C83.9878325,3.75681114 83.8459674,3.41517112 83.8459674,3.01025834 C83.8459674,2.59269205 83.9878325,2.24472535 84.271567,1.96634782 C84.5553014,1.68797029 84.8989302,1.54878361 85.3024637,1.54878361 C85.7059972,1.54878361 86.0464735,1.68797029 86.3239027,1.96634782 C86.601332,2.24472535 86.7400445,2.59269205 86.7400445,3.01025834 Z M89.6417716,20.4245839 L89.6417716,3.00076825 C89.6417716,2.19885928 90.2896328,1.54878361 91.0888101,1.54878361 L92.5358487,1.54878361 L92.5358487,18.9725992 C92.5358487,19.7745082 91.8879875,20.4245839 91.0888101,20.4245839 L89.6417716,20.4245839 Z M99.4074745,20.4304135 L95.500299,8.14231578 C95.2666421,7.37544641 95.7068391,6.56371223 96.4710962,6.32925674 L97.8475997,5.90473752 L101.035292,16.3407482 L103.904215,6.93258802 C104.137872,6.16571865 104.936657,5.73411194 105.700914,5.96856743 L107.029184,6.39308665 L102.107516,22.7250801 C101.735535,23.9459333 100.612307,24.7798391 99.3400192,24.7800109 L96.9475323,24.7805378 C96.1483549,24.7805378 95.5004065,24.1306575 95.500299,23.3287486 L95.5004937,21.8765685 L97.9055577,21.8765685 C98.7024671,21.8765685 99.404275,21.2300403 99.4074745,20.4304135 Z" id="daily"></path>
            </g>
            <path d="M111.750465,20.6135723 L111.750465,18.5618028 L109.645576,18.5618028 L109.645576,20.6135723 L111.750465,20.6135723 Z M118.045996,20.7478003 C119.066548,20.7478003 119.930828,20.492128 120.638836,19.9807836 C121.346844,19.4694392 121.841174,18.785516 122.121826,17.9290141 L122.121826,17.9290141 L122.121826,20.6135723 L123.863143,20.6135723 L123.863143,6.4237644 L122.121826,6.4237644 L122.121826,12.7708271 C121.841174,11.9143252 121.346844,11.230402 120.638836,10.7190576 C119.930828,10.2077132 119.066548,9.95204097 118.045996,9.95204097 C117.114742,9.95204097 116.285543,10.1693624 115.5584,10.6040051 C114.831257,11.0386479 114.260385,11.6650448 113.845786,12.4831959 C113.431187,13.301347 113.223887,14.2601178 113.223887,15.3595083 C113.223887,16.4588988 113.431187,17.4144738 113.845786,18.226233 C114.260385,19.0379923 114.831257,19.6611933 115.5584,20.0958361 C116.285543,20.5304789 117.114742,20.7478003 118.045996,20.7478003 Z M118.543515,19.213767 C117.471935,19.213767 116.614034,18.8718054 115.96981,18.1878822 C115.325587,17.503959 115.003475,16.5611677 115.003475,15.3595083 C115.003475,14.1578489 115.325587,13.2150576 115.96981,12.5311344 C116.614034,11.8472113 117.471935,11.5052497 118.543515,11.5052497 C119.232388,11.5052497 119.847908,11.6618489 120.390077,11.9750474 C120.932245,12.2882458 121.356412,12.7388681 121.662578,13.3269142 C121.968743,13.9149603 122.121826,14.5924917 122.121826,15.3595083 C122.121826,16.126525 121.968743,16.8008604 121.662578,17.3825147 C121.356412,17.964169 120.932245,18.4147913 120.390077,18.7343816 C119.847908,19.0539718 119.232388,19.213767 118.543515,19.213767 Z M131.287661,20.7478003 C132.167887,20.7478003 132.958815,20.5880051 133.660444,20.2684149 C134.362074,19.9488246 134.932945,19.5013982 135.373059,18.9261357 C135.813172,18.3508732 136.097013,17.6989091 136.224582,16.9702433 L136.224582,16.9702433 L134.368453,16.9702433 C134.240884,17.6861255 133.893258,18.2581921 133.325576,18.686443 C132.757894,19.114694 132.053075,19.3288195 131.211119,19.3288195 C130.279865,19.3288195 129.492127,19.0284046 128.847903,18.4275749 C128.203679,17.8267452 127.862432,16.9255006 127.824162,15.7238412 L127.824162,15.7238412 L136.224582,15.7238412 C136.275609,15.4553854 136.301123,15.1357951 136.301123,14.7650704 C136.301123,13.8830013 136.100202,13.0776338 135.69836,12.348968 C135.296517,11.6203022 134.716078,11.0386479 133.957042,10.6040051 C133.198007,10.1693624 132.308213,9.95204097 131.287661,9.95204097 C130.279865,9.95204097 129.386882,10.1693624 128.608711,10.6040051 C127.83054,11.0386479 127.221398,11.6650448 126.781285,12.4831959 C126.341172,13.301347 126.121115,14.2601178 126.121115,15.3595083 C126.121115,16.4588988 126.341172,17.4144738 126.781285,18.226233 C127.221398,19.0379923 127.83054,19.6611933 128.608711,20.0958361 C129.386882,20.5304789 130.279865,20.7478003 131.287661,20.7478003 Z M134.540671,14.8801229 L127.824162,14.8801229 C127.875189,13.729598 128.226004,12.8571165 128.876606,12.2626786 C129.527208,11.6682407 130.330893,11.3710218 131.287661,11.3710218 C131.887235,11.3710218 132.44216,11.4988579 132.952436,11.7545301 C133.462712,12.0102023 133.864555,12.4001024 134.157964,12.9242305 C134.451372,13.4483585 134.578941,14.1003227 134.540671,14.8801229 L134.540671,14.8801229 Z M143.668234,20.6135723 L147.782335,10.0862689 L145.907071,10.0862689 L142.654061,18.753557 L139.36278,10.0862689 L137.487515,10.0862689 L141.601616,20.6135723 L143.668234,20.6135723 Z" id=".dev" fill-rule="nonzero" opacity="0.56"></path>
        </g>
    </g>
</svg>